<svg width="159" height="30" viewBox="0 0 159 30" fill="none" xmlns="http://www.w3.org/2000/svg">
<path fill-rule="evenodd" clip-rule="evenodd" d="M21.1843 20.6442C21.2778 20.6619 21.3703 20.6943 21.4623 20.7369C21.5147 20.7612 21.5603 20.7855 21.5971 20.807L21.6334 20.8292L22.2268 21.1591L22.6765 21.4113C22.8257 21.4953 22.9738 21.579 23.1197 21.6619L23.6107 21.9423L23.8826 22.0991C23.9858 22.1589 24.0851 22.2168 24.1801 22.2725C24.9393 22.7158 25.0533 23.2682 24.7088 23.721C24.654 23.7929 24.5987 23.8479 24.5522 23.8861L24.5297 23.9038L24.4948 23.9265L15.1738 29.1262L15.0217 28.871L15.0695 29.1619C14.5858 29.2363 14.2523 29.0107 14.0886 28.6279L14.0717 28.5863C14.0068 28.4176 13.9817 28.2546 13.9775 28.1268L13.9795 27.9401L14.0337 25.2854C14.0403 25.0112 14.0452 24.8465 14.0485 24.8028C14.0568 24.6929 14.079 24.5989 14.1129 24.5199C14.1422 24.4519 14.1783 24.3989 14.2167 24.3604L14.24 24.3391L14.2618 24.3208L20.7549 20.7007C20.8857 20.6269 21.0318 20.6154 21.1843 20.6442ZM5.8785 20.9552C6.53745 21.322 12.3464 24.562 12.3464 24.562L12.3495 24.565C12.3634 24.5792 12.4197 24.647 12.4326 24.8244C12.4468 25.0069 12.5023 27.9906 12.504 28.0838L12.504 28.0912C12.5028 28.1639 12.4742 28.9804 11.7635 28.871L2.44178 23.6714C2.44178 23.6714 1.72584 23.1307 2.76236 22.5247C3.87876 21.8708 5.31066 21.0807 5.31066 21.0807C5.31066 21.0807 5.67531 20.8414 5.8785 20.9552ZM21.053 21.2145L14.6657 24.7752L14.6605 24.8025C14.6597 24.8076 14.6589 24.8129 14.6582 24.8185L14.6547 24.8619C14.6514 24.929 14.6458 25.1406 14.6384 25.4645L14.5996 27.3508L14.5856 28.0867L14.5879 28.1304C14.589 28.1437 14.5906 28.1591 14.5928 28.1763C14.6019 28.2476 14.6181 28.3182 14.6422 28.3808C14.6983 28.5265 14.7701 28.5914 14.9098 28.5865L14.9238 28.5854L24.1667 23.4294L24.1705 23.4261C24.18 23.417 24.1922 23.4042 24.2053 23.3884L24.2186 23.3717C24.3506 23.1982 24.3182 23.0411 23.8651 22.7765L23.466 22.5445L23.2392 22.4139C22.96 22.2537 22.6673 22.0876 22.3702 21.9204L21.6524 21.5186L21.3239 21.3365L21.273 21.3059C21.2534 21.2948 21.2281 21.2815 21.1994 21.2682C21.16 21.25 21.1226 21.236 21.0905 21.2276L21.0518 21.2188C21.0495 21.2178 21.0499 21.2166 21.053 21.2145ZM35.6746 20.3615C36.0215 20.3615 36.3185 20.3795 36.5573 20.4154C36.7955 20.4515 37.0124 20.4972 37.2021 20.5516L37.24 20.5622V21.8875L37.1637 21.8508C36.9506 21.7479 36.7169 21.6671 36.4687 21.6109C35.9649 21.4961 35.4971 21.491 35.1386 21.6386C34.9576 21.713 34.8031 21.8184 34.679 21.9511C34.555 22.0839 34.459 22.2482 34.3932 22.4386C34.3273 22.6309 34.2936 22.8452 34.2936 23.0754C34.2936 23.3159 34.3296 23.5339 34.4008 23.7237C34.4711 23.9121 34.5724 24.0747 34.7019 24.2066C34.8307 24.338 34.9879 24.4399 35.1688 24.5094C35.4394 24.6138 35.7547 24.6384 36.1276 24.5926C36.2492 24.5779 36.3728 24.5559 36.4948 24.5276C36.6164 24.4995 36.7389 24.4665 36.8588 24.4294C36.9775 24.3927 37.0898 24.3523 37.1923 24.3095L37.2661 24.2785V25.4933L37.233 25.5062C36.98 25.6051 36.7133 25.6797 36.4404 25.7279C36.1687 25.7756 35.881 25.7996 35.5852 25.7996C35.158 25.7996 34.7688 25.7424 34.4285 25.6294C34.0868 25.5157 33.7923 25.3443 33.5526 25.1196C33.3136 24.895 33.1282 24.6135 33.0019 24.2824C32.8759 23.9532 32.8121 23.5675 32.8121 23.1365C32.8121 22.7189 32.8814 22.3349 33.0178 21.9949C33.1545 21.6548 33.3501 21.36 33.5997 21.1185C33.8484 20.8776 34.1522 20.6889 34.5029 20.5579C34.8525 20.4275 35.2466 20.3615 35.6746 20.3615ZM40.136 20.3614C41.6774 20.3614 42.4805 20.9957 42.4805 22.2421V25.7482H41.1386V25.2877C40.7682 25.6459 40.4205 25.7997 39.787 25.7997C39.1637 25.7997 38.7092 25.6459 38.3822 25.3298C38.0858 25.0329 37.9269 24.6036 37.9269 24.133C37.9269 23.285 38.5295 22.5898 39.8084 22.5898H41.1068V22.3243C41.1068 21.7412 40.811 21.4859 40.0828 21.4859C39.5535 21.4859 39.3116 21.6089 39.0262 21.9257L38.1488 21.098C38.6884 20.5252 39.2162 20.3614 40.136 20.3614ZM55.8877 20.3614C57.4304 20.3614 58.2322 20.9957 58.2322 22.2421V25.7482H56.8903V25.2877C56.5206 25.6459 56.1722 25.7997 55.5387 25.7997C54.9154 25.7997 54.4615 25.6459 54.1339 25.3298C53.8375 25.0329 53.6792 24.6036 53.6792 24.133C53.6792 23.285 54.2818 22.5898 55.5601 22.5898H56.8585V22.3243C56.8585 21.7412 56.5627 21.4859 55.8345 21.4859C55.3052 21.4859 55.0633 21.6089 54.7785 21.9257L53.9004 21.098C54.4401 20.5252 54.9685 20.3614 55.8877 20.3614ZM50.7739 20.3614C52.316 20.3614 53.119 20.9957 53.119 22.2421V25.7482H51.7772V25.2877C51.4075 25.6459 51.0591 25.7997 50.425 25.7997C49.8022 25.7997 49.3478 25.6459 49.0202 25.3298C48.7244 25.0329 48.5661 24.6036 48.5661 24.133C48.5661 23.285 49.1681 22.5898 50.4464 22.5898H51.7454V22.3243C51.7454 21.7412 51.4502 21.4859 50.7207 21.4859C50.1927 21.4859 49.9501 21.6089 49.6647 21.9257L48.788 21.098C49.327 20.5252 49.8548 20.3614 50.7739 20.3614ZM46.1471 20.3617C46.6958 20.3617 47.1395 20.5355 47.4461 20.8318C47.8898 21.2611 48.0059 21.7618 48.0059 22.3443V25.7481H46.6323V22.5288C46.6323 21.8026 46.1575 21.5578 45.7244 21.5578C45.2911 21.5578 44.8052 21.8026 44.8052 22.5288V25.7481H43.4316V20.4226H44.7734V20.9134C45.1328 20.545 45.6394 20.3617 46.1471 20.3617ZM61.8983 20.3617C62.4471 20.3617 62.8908 20.5355 63.198 20.8318C63.6417 21.2611 63.7578 21.7618 63.7578 22.3443V25.7481H62.3842V22.5288C62.3842 21.8026 61.9094 21.5578 61.4763 21.5578C61.0423 21.5578 60.5571 21.8026 60.5571 22.5288V25.7481H59.1835V20.4226H60.5253V20.9134C60.8847 20.545 61.3913 20.3617 61.8983 20.3617ZM56.8585 23.4997H55.7709C55.2741 23.4997 54.9997 23.7244 54.9997 24.1029C54.9997 24.4711 55.2527 24.7159 55.7917 24.7159C56.1722 24.7159 56.4148 24.6852 56.6575 24.4605C56.806 24.3274 56.8585 24.1129 56.8585 23.7853V23.4997ZM41.1068 23.4997H40.0192C39.5224 23.4997 39.248 23.7244 39.248 24.1029C39.248 24.4711 39.501 24.7159 40.04 24.7159C40.4205 24.7159 40.6632 24.6852 40.9058 24.4605C41.0543 24.3274 41.1068 24.1129 41.1068 23.7853V23.4997ZM51.7454 23.4997H50.6578C50.161 23.4997 49.8872 23.7244 49.8872 24.1029C49.8872 24.4711 50.1395 24.7159 50.6786 24.7159C51.0591 24.7159 51.3024 24.6852 51.545 24.4605C51.6929 24.3274 51.7454 24.1129 51.7454 23.7853V23.4997ZM25.7911 9.83288C25.9686 9.89922 26.1262 10.0146 26.2569 10.1791L26.2953 10.2299L26.0454 10.3979L26.3498 10.3981V20.6127L26.3467 20.6546C26.332 20.7532 26.2911 20.8818 26.2041 21.0139C25.9268 21.4355 25.4001 21.5318 24.7049 21.1706L24.2445 20.9299L24.0039 20.8026L23.4877 20.527C23.3132 20.4333 23.1367 20.338 22.9601 20.2423L22.118 19.7826L22.1008 19.7744C22.048 19.7485 21.9842 19.7125 21.9174 19.6668L21.8771 19.6382C21.696 19.5054 21.5738 19.3546 21.5584 19.1603L21.5567 19.118V12.0014L21.5626 11.973C21.5862 11.858 21.6751 11.7308 21.8443 11.6134L21.8883 11.5842C21.9112 11.5697 21.9756 11.5319 22.0786 11.4724L23.3516 10.7466L24.8109 9.91975C24.8512 9.89716 24.9133 9.86835 24.9937 9.84062C25.25 9.75227 25.5234 9.73284 25.7911 9.83288ZM1.84053 10.1746C1.84053 10.1746 4.58842 11.7289 4.74881 11.8306C4.91249 11.9349 4.93929 12.0193 4.94201 12.0294L4.94226 12.0305V19.118C4.94226 19.3191 4.61497 19.4873 4.55263 19.5175L4.54121 19.523C4.49385 19.5491 3.08721 20.3232 1.95473 20.911C0.903386 21.4572 0.762476 20.6417 0.75793 20.6134L0.757812 10.3981C1.18348 9.8066 1.84053 10.1746 1.84053 10.1746ZM25.198 10.3955L25.1601 10.4096C25.1491 10.4139 25.1398 10.4179 25.1326 10.4212L24.9917 10.4997L22.2461 12.0623C22.2349 12.0689 22.2267 12.0738 22.2218 12.077C22.2063 12.0868 22.1933 12.0958 22.1823 12.104L22.1653 12.1175V19.0966L22.167 19.0982C22.1785 19.113 22.1966 19.1307 22.2199 19.1496L22.2448 19.1688C22.2908 19.2025 22.3387 19.2302 22.3722 19.2471L22.4115 19.2665L22.9937 19.585C23.2572 19.7285 23.5222 19.8719 23.7829 20.0119L24.4142 20.3485L24.77 20.5357C24.8462 20.5755 24.9204 20.6141 24.9925 20.6515L25.0807 20.6955C25.4463 20.8695 25.6018 20.8326 25.6906 20.6976C25.7142 20.6618 25.7297 20.6241 25.7378 20.5971L25.741 20.5852V10.4996L25.7154 10.4736C25.6788 10.4391 25.6409 10.4134 25.6016 10.3949L25.5718 10.3824C25.4608 10.3409 25.3292 10.3503 25.198 10.3955ZM46.0144 9.15359V11.9994H43.67C43.5719 12.2116 43.4447 12.4045 43.2892 12.5798H46.6217V13.8776L37.2688 13.8922L37.1809 14.3543H40.2133C40.1646 16.0753 40.0034 17.3081 39.7309 17.6493C39.4679 17.9901 38.8395 18.1604 37.8458 18.1604C37.5631 18.1604 37.3146 18.1514 37.1004 18.1328L36.809 16.7236C37.247 16.7697 37.6017 16.7923 37.8754 16.7923C38.1769 16.7923 38.3433 16.265 38.3717 15.6111H36.8003C36.7525 16.0624 36.4501 16.7333 35.8943 17.2208C35.3305 17.718 34.6084 18.0731 33.7331 18.2839L32.8119 16.7648C34.1071 16.5438 34.833 16.0253 34.9892 15.6111H33.3153V14.34H35.4426L35.5151 13.8776H32.9877V12.5798H36.2461C36.1674 12.3676 36.0607 12.1739 35.9242 11.9994H33.6539V9.15359H46.0144ZM46.2265 14.3605V18.271H44.4145V17.7455H42.3906V18.271H40.6223V14.3605H46.2265ZM53.6733 5.25727V7.81415H54.9012V9.47118H53.6733V10.3007C54.2676 10.7052 54.7653 11.1106 55.1647 11.5158V8.71094H58.3214V7.7303H54.9601V6.1274H58.3214V5.25727H60.2204V6.1274H63.7578V7.7303H60.2204V8.71094H63.4504V16.5578C63.4504 17.6442 62.9236 18.1882 61.8719 18.1882H60.761L60.5423 16.5715L61.2288 16.6273C61.5695 16.6273 61.7403 16.4844 61.7403 16.1994V10.2171H56.9032V18.2706H55.1647V12.151L54.4333 13.1599C54.2189 12.8282 53.9661 12.5102 53.6733 12.2059V18.2706H51.9494V12.8694C51.7742 13.6343 51.3456 14.4764 50.6635 15.3973L49.977 13.2286C50.9708 12.0776 51.5935 10.8248 51.8469 9.47118H50.1084V7.81415H51.9494V5.25727H53.6733ZM60.0454 10.4106L61.5064 10.7973C61.3021 11.3591 61.1017 11.8104 60.9078 12.151H61.4627V13.4633H60.1035V14.3341H61.4337V15.6464H60.1035V17.8421H58.4957V15.6464H57.2098V14.3341H58.4957V13.4633H57.1664V12.151H57.8239C57.7264 11.7643 57.5317 11.3316 57.2397 10.8522L58.6426 10.4106C58.9252 11.0185 59.1248 11.5982 59.2411 12.151H59.446C59.7185 11.6173 59.9183 11.037 60.0454 10.4106ZM44.4145 15.5492H42.3898V16.5582H44.4145V15.5492ZM41.6524 12.0125H37.9263C38.0237 12.1698 38.1108 12.3635 38.1901 12.5927H41.2734C41.4577 12.382 41.585 12.1876 41.6524 12.0125ZM44.0848 10.3272H35.646V10.8524H44.0848V10.3272ZM12.504 2.96606L12.504 2.97346C12.5023 3.06665 12.4468 6.05034 12.4326 6.23279C12.4178 6.43494 12.3464 6.4946 12.3464 6.4946C12.3464 6.4946 6.53745 9.73484 5.8785 10.1022C5.67531 10.2158 5.31066 9.97657 5.31066 9.97657C5.31066 9.97657 3.87876 9.18578 2.76236 8.53277C1.74311 7.93601 2.41841 7.40268 2.4412 7.38507L2.44178 7.38462L11.7635 2.18618C12.4742 2.07627 12.5028 2.89323 12.504 2.96606ZM15.0218 2.18618L24.3428 7.38462C24.3428 7.38462 25.0606 7.92589 24.0228 8.53277C22.9077 9.18578 21.4746 9.97657 21.4746 9.97657C21.4746 9.97657 21.11 10.2158 20.908 10.1022C20.2478 9.73484 14.4389 6.4946 14.4389 6.4946C14.4389 6.4946 14.3675 6.43494 14.352 6.23279C14.3384 6.05034 14.283 3.06665 14.2813 2.97346L14.2813 2.96606C14.2824 2.89323 14.3109 2.07627 15.0218 2.18618ZM40.7329 5.25747V5.75466H46.6217V7.06724H40.7329V7.49575H46.2911V8.68449H33.3153V7.49575H38.6579V7.06724H32.9877V5.75466H38.6579V5.25747H40.7329Z" fill="white"/>
<line x1="74.9824" y1="5.1582" x2="74.9824" y2="25.7247" stroke="white"/>
<path d="M87.114 20.8237C87.4206 20.8237 87.6989 20.8519 87.949 20.9084C88.2032 20.9608 88.419 21.0637 88.5965 21.217C88.778 21.3703 88.9171 21.5841 89.014 21.8584C89.1108 22.1327 89.1592 22.4877 89.1592 22.9233C89.1592 23.3307 89.1108 23.6696 89.014 23.9399C88.9171 24.2061 88.778 24.4199 88.5965 24.5812C88.419 24.7426 88.2032 24.8576 87.949 24.9261C87.6989 24.9907 87.4206 25.0229 87.114 25.0229H85.6739V20.8237H87.114ZM87.0656 24.2363C87.2592 24.2363 87.4266 24.2162 87.5678 24.1758C87.713 24.1355 87.832 24.0649 87.9248 23.9641C88.0216 23.8632 88.0922 23.7281 88.1366 23.5587C88.185 23.3892 88.2092 23.1775 88.2092 22.9233C88.2092 22.6531 88.185 22.4332 88.1366 22.2638C88.0882 22.0903 88.0156 21.9552 87.9188 21.8584C87.826 21.7575 87.707 21.689 87.5618 21.6527C87.4206 21.6164 87.2552 21.5982 87.0656 21.5982H86.5936V24.2363H87.0656ZM92.6377 24.2242V25.0229H89.9875V20.8237H92.553V21.6224H90.9072V22.4877H92.432V23.2561H90.9072V24.2242H92.6377ZM92.9979 20.8237H94.0144L95.0249 24.0427H95.0612L96.108 20.8237H97.064L95.5876 25.0229H94.444L92.9979 20.8237ZM100.26 24.2242V25.0229H97.6101V20.8237H100.176V21.6224H98.5298V22.4877H100.055V23.2561H98.5298V24.2242H100.26ZM103.597 24.2242V25.0229H101.008V20.8237H101.927V24.2242H103.597ZM105.771 25.0835C105.468 25.0835 105.198 25.0512 104.96 24.9866C104.722 24.9221 104.522 24.8092 104.361 24.6478C104.2 24.4824 104.077 24.2605 103.992 23.9822C103.907 23.7039 103.865 23.3509 103.865 22.9233C103.865 22.4957 103.907 22.1428 103.992 21.8644C104.077 21.5861 104.2 21.3663 104.361 21.2049C104.522 21.0395 104.722 20.9245 104.96 20.86C105.198 20.7955 105.468 20.7632 105.771 20.7632C106.078 20.7632 106.35 20.7955 106.588 20.86C106.826 20.9245 107.025 21.0395 107.187 21.2049C107.348 21.3663 107.469 21.5861 107.55 21.8644C107.635 22.1428 107.677 22.4957 107.677 22.9233C107.677 23.3509 107.635 23.7039 107.55 23.9822C107.469 24.2605 107.348 24.4824 107.187 24.6478C107.025 24.8092 106.826 24.9221 106.588 24.9866C106.35 25.0512 106.078 25.0835 105.771 25.0835ZM105.771 24.315C105.965 24.315 106.122 24.2908 106.243 24.2424C106.368 24.194 106.465 24.1153 106.533 24.0064C106.602 23.8975 106.648 23.7543 106.673 23.5768C106.701 23.3993 106.715 23.1815 106.715 22.9233C106.715 22.6692 106.701 22.4534 106.673 22.2759C106.648 22.0944 106.602 21.9471 106.533 21.8342C106.465 21.7212 106.368 21.6406 106.243 21.5921C106.122 21.5397 105.965 21.5135 105.771 21.5135C105.577 21.5135 105.42 21.5397 105.299 21.5921C105.178 21.6406 105.083 21.7212 105.015 21.8342C104.946 21.9471 104.898 22.0944 104.869 22.2759C104.845 22.4534 104.833 22.6692 104.833 22.9233C104.833 23.1815 104.845 23.3993 104.869 23.5768C104.898 23.7543 104.946 23.8975 105.015 24.0064C105.083 24.1153 105.178 24.194 105.299 24.2424C105.42 24.2908 105.577 24.315 105.771 24.315ZM108.5 20.8237H109.934C110.249 20.8237 110.511 20.8519 110.721 20.9084C110.935 20.9608 111.104 21.0456 111.229 21.1625C111.358 21.2755 111.449 21.4227 111.501 21.6043C111.558 21.7817 111.586 21.9976 111.586 22.2517C111.586 22.526 111.556 22.7579 111.495 22.9475C111.435 23.1331 111.338 23.2844 111.205 23.4013C111.072 23.5183 110.9 23.603 110.691 23.6555C110.481 23.7039 110.229 23.7281 109.934 23.7281H109.42V25.0229H108.5V20.8237ZM109.813 22.9899C109.971 22.9899 110.102 22.9798 110.207 22.9596C110.312 22.9354 110.396 22.8951 110.461 22.8386C110.529 22.7821 110.578 22.7095 110.606 22.6208C110.634 22.528 110.648 22.411 110.648 22.2698C110.648 22.1367 110.634 22.0238 110.606 21.931C110.578 21.8382 110.529 21.7636 110.461 21.7071C110.396 21.6506 110.309 21.6103 110.201 21.5861C110.096 21.5619 109.967 21.5498 109.813 21.5498H109.42V22.9899H109.813ZM114.985 24.2242V25.0229H112.335V20.8237H114.901V21.6224H113.255V22.4877H114.78V23.2561H113.255V24.2242H114.985ZM118.093 25.0229L117.106 23.4921H116.653V25.0229H115.733V20.8237H117.161C117.443 20.8237 117.685 20.8479 117.887 20.8963C118.093 20.9447 118.262 21.0214 118.395 21.1262C118.528 21.2311 118.625 21.3683 118.686 21.5377C118.75 21.7071 118.782 21.9128 118.782 22.1549C118.782 22.5058 118.718 22.7801 118.589 22.9778C118.464 23.1754 118.266 23.3146 117.996 23.3953L119.176 25.0229H118.093ZM117.022 22.8084C117.175 22.8084 117.306 22.8003 117.415 22.7842C117.524 22.764 117.611 22.7297 117.675 22.6813C117.744 22.6329 117.792 22.5663 117.82 22.4816C117.853 22.3969 117.869 22.288 117.869 22.1549C117.869 22.0298 117.853 21.929 117.82 21.8523C117.792 21.7717 117.744 21.7091 117.675 21.6648C117.611 21.6204 117.524 21.5901 117.415 21.574C117.306 21.5579 117.175 21.5498 117.022 21.5498H116.653V22.8084H117.022ZM123.14 25.0835C122.834 25.0835 122.556 25.0532 122.305 24.9927C122.055 24.9322 121.842 24.8233 121.664 24.666C121.487 24.5046 121.349 24.2848 121.253 24.0064C121.156 23.724 121.107 23.363 121.107 22.9233C121.107 22.5199 121.154 22.1811 121.247 21.9068C121.343 21.6285 121.48 21.4046 121.658 21.2352C121.835 21.0657 122.047 20.9447 122.293 20.8721C122.543 20.7995 122.824 20.7632 123.134 20.7632C123.53 20.7632 123.856 20.8096 124.115 20.9024V21.695C123.986 21.6506 123.844 21.6164 123.691 21.5921C123.538 21.5639 123.372 21.5498 123.195 21.5498C123.005 21.5498 122.842 21.574 122.705 21.6224C122.568 21.6668 122.455 21.7434 122.366 21.8523C122.277 21.9572 122.211 22.0964 122.166 22.2698C122.126 22.4433 122.106 22.6591 122.106 22.9173C122.106 23.1916 122.126 23.4175 122.166 23.595C122.211 23.7684 122.277 23.9076 122.366 24.0125C122.455 24.1133 122.566 24.1839 122.699 24.2242C122.836 24.2646 122.997 24.2848 123.183 24.2848C123.356 24.2848 123.522 24.2727 123.679 24.2484C123.84 24.2202 124.002 24.1779 124.163 24.1214V24.908C124.038 24.9604 123.887 25.0028 123.709 25.0351C123.532 25.0673 123.342 25.0835 123.14 25.0835ZM126.659 25.0835C126.357 25.0835 126.086 25.0512 125.848 24.9866C125.61 24.9221 125.411 24.8092 125.249 24.6478C125.088 24.4824 124.965 24.2605 124.88 23.9822C124.796 23.7039 124.753 23.3509 124.753 22.9233C124.753 22.4957 124.796 22.1428 124.88 21.8644C124.965 21.5861 125.088 21.3663 125.249 21.2049C125.411 21.0395 125.61 20.9245 125.848 20.86C126.086 20.7955 126.357 20.7632 126.659 20.7632C126.966 20.7632 127.238 20.7955 127.476 20.86C127.714 20.9245 127.914 21.0395 128.075 21.2049C128.236 21.3663 128.357 21.5861 128.438 21.8644C128.523 22.1428 128.565 22.4957 128.565 22.9233C128.565 23.3509 128.523 23.7039 128.438 23.9822C128.357 24.2605 128.236 24.4824 128.075 24.6478C127.914 24.8092 127.714 24.9221 127.476 24.9866C127.238 25.0512 126.966 25.0835 126.659 25.0835ZM126.659 24.315C126.853 24.315 127.01 24.2908 127.131 24.2424C127.256 24.194 127.353 24.1153 127.422 24.0064C127.49 23.8975 127.537 23.7543 127.561 23.5768C127.589 23.3993 127.603 23.1815 127.603 22.9233C127.603 22.6692 127.589 22.4534 127.561 22.2759C127.537 22.0944 127.49 21.9471 127.422 21.8342C127.353 21.7212 127.256 21.6406 127.131 21.5921C127.01 21.5397 126.853 21.5135 126.659 21.5135C126.466 21.5135 126.308 21.5397 126.187 21.5921C126.066 21.6406 125.971 21.7212 125.903 21.8342C125.834 21.9471 125.786 22.0944 125.758 22.2759C125.733 22.4534 125.721 22.6692 125.721 22.9233C125.721 23.1815 125.733 23.3993 125.758 23.5768C125.786 23.7543 125.834 23.8975 125.903 24.0064C125.971 24.1153 126.066 24.194 126.187 24.2424C126.308 24.2908 126.466 24.315 126.659 24.315ZM129.389 20.8237H130.883L131.579 23.1896H131.615L132.341 20.8237H133.794V25.0229H132.886V21.7192H132.85L132.039 24.2303H131.119L130.32 21.7192H130.284V25.0229H129.389V20.8237ZM134.724 20.8237H136.219L136.915 23.1896H136.951L137.677 20.8237H139.129V25.0229H138.222V21.7192H138.185L137.375 24.2303H136.455L135.656 21.7192H135.62V25.0229H134.724V20.8237ZM141.797 25.0835C141.514 25.0835 141.264 25.0593 141.046 25.0108C140.829 24.9624 140.645 24.8838 140.496 24.7749C140.347 24.6619 140.234 24.5127 140.157 24.3271C140.08 24.1416 140.042 23.9096 140.042 23.6313V20.8237H140.962V23.5284C140.962 23.6535 140.974 23.7644 140.998 23.8612C141.022 23.958 141.067 24.0387 141.131 24.1032C141.196 24.1678 141.282 24.2162 141.391 24.2484C141.5 24.2807 141.637 24.2969 141.803 24.2969C141.976 24.2969 142.117 24.2787 142.226 24.2424C142.335 24.2061 142.42 24.1557 142.48 24.0911C142.545 24.0226 142.589 23.9419 142.614 23.8491C142.638 23.7523 142.65 23.6454 142.65 23.5284V20.8237H143.564V23.6313C143.564 23.8894 143.523 24.1113 143.443 24.2969C143.366 24.4784 143.251 24.6276 143.098 24.7446C142.948 24.8616 142.765 24.9483 142.547 25.0048C142.329 25.0572 142.079 25.0835 141.797 25.0835ZM144.48 20.8237H145.884L147.203 23.8249H147.239V20.8237H148.141V25.0229H146.876L145.424 21.8281H145.388V25.0229H144.48V20.8237ZM149.071 20.8237H149.991V25.0229H149.071V20.8237ZM153.68 21.6285H152.579V25.0229H151.665V21.6285H150.564V20.8237H153.68V21.6285ZM155.331 23.359L153.806 20.8237H154.883L155.784 22.4998H155.821L156.752 20.8237H157.787L156.256 23.3408V25.0229H155.331V23.359Z" fill="white"/>
<path d="M97.3026 12.0317H94.5306V17.2397H92.7666V12.0317H89.6586C89.6119 12.6757 89.5232 13.2497 89.3926 13.7537C89.2712 14.2577 89.0939 14.729 88.8606 15.1677C88.6272 15.597 88.3286 16.017 87.9646 16.4277C87.6099 16.8383 87.1712 17.2817 86.6486 17.7577L85.2766 16.4417C85.7526 16.059 86.1492 15.7043 86.4666 15.3777C86.7839 15.0417 87.0406 14.7057 87.2366 14.3697C87.4326 14.0337 87.5819 13.679 87.6846 13.3057C87.7872 12.9323 87.8572 12.5077 87.8946 12.0317H84.9686V10.3097H87.9506V7.15965H85.7106V5.45165H96.5326V7.15965H94.5306V10.3097H97.3026V12.0317ZM92.7666 10.3097V7.15965H89.7146V10.2257V10.3097H92.7666ZM111.644 17.6177C110.738 17.3097 109.917 16.983 109.18 16.6377C108.452 16.3017 107.794 15.9283 107.206 15.5177C106.636 15.863 105.983 16.1897 105.246 16.4977C104.518 16.815 103.668 17.137 102.698 17.4637L101.998 16.0217C101.848 16.1897 101.694 16.3577 101.536 16.5257C101.386 16.703 101.228 16.8803 101.06 17.0577L99.7718 15.6717C100.752 14.7197 101.568 13.693 102.222 12.5917C102.884 11.4903 103.412 10.2583 103.804 8.89565H100.906V7.38365C100.943 7.29032 100.99 7.14565 101.046 6.94965C101.102 6.75365 101.158 6.54365 101.214 6.31965C101.27 6.09565 101.321 5.87632 101.368 5.66165C101.424 5.43765 101.466 5.24632 101.494 5.08765L103.174 5.38165C103.146 5.51232 103.108 5.67099 103.062 5.85765C103.015 6.03499 102.964 6.21698 102.908 6.40365C102.861 6.58099 102.814 6.74899 102.768 6.90765C102.721 7.06632 102.684 7.18299 102.656 7.25765H104.21C104.284 6.86565 104.35 6.46899 104.406 6.06765C104.471 5.66632 104.527 5.25099 104.574 4.82165L106.282 5.04565C106.235 5.43765 106.184 5.82032 106.128 6.19365C106.081 6.55765 106.03 6.91232 105.974 7.25765H109.222C109.091 7.13632 108.946 7.00565 108.788 6.86565C108.638 6.72565 108.484 6.58565 108.326 6.44565C108.176 6.30565 108.032 6.17499 107.892 6.05365C107.752 5.93232 107.63 5.82965 107.528 5.74565L108.522 4.51365C108.643 4.60698 108.792 4.72832 108.97 4.87765C109.156 5.01765 109.343 5.16699 109.53 5.32565C109.716 5.48432 109.894 5.63832 110.062 5.78765C110.239 5.93698 110.384 6.06765 110.496 6.17965L109.74 7.25765H111.966V8.89565H105.638C105.591 9.07299 105.544 9.24565 105.498 9.41365C105.46 9.58165 105.418 9.74499 105.372 9.90365H110.902V11.5417C110.566 12.139 110.225 12.6663 109.88 13.1237C109.544 13.581 109.166 14.001 108.746 14.3837C109.763 14.9623 111 15.4617 112.456 15.8817L111.644 17.6177ZM107.318 13.3897C107.672 13.1097 107.98 12.8157 108.242 12.5077C108.512 12.1997 108.746 11.8823 108.942 11.5557H105.708C106.146 12.2463 106.683 12.8577 107.318 13.3897ZM102.18 15.7977C102.926 15.5737 103.594 15.345 104.182 15.1117C104.779 14.869 105.316 14.617 105.792 14.3557C105.222 13.805 104.742 13.203 104.35 12.5497C104.07 13.1097 103.752 13.6557 103.398 14.1877C103.043 14.7197 102.637 15.2563 102.18 15.7977ZM122.751 10.2257C122.331 10.5337 121.888 10.823 121.421 11.0937H125.621V17.1837H117.333V13.1377C117.053 13.259 116.764 13.3803 116.465 13.5017C116.176 13.6137 115.872 13.735 115.555 13.8657L114.967 12.2277C115.91 11.901 116.768 11.5743 117.543 11.2477C118.327 10.921 119.046 10.5803 119.699 10.2257H115.317V8.69965H119.587V7.60765H116.703V6.12365H119.587V4.90565L121.337 4.97565V6.12365H124.039V6.83765C124.254 6.60432 124.459 6.36165 124.655 6.10965C124.851 5.85765 125.047 5.59632 125.243 5.32565L126.629 6.27765C126.321 6.72565 125.999 7.15032 125.663 7.55165C125.336 7.95299 124.982 8.33565 124.599 8.69965H127.315V10.2257H122.751ZM121.337 8.69965H122.065C122.28 8.52232 122.49 8.34499 122.695 8.16765C122.91 7.98099 123.115 7.79432 123.311 7.60765H121.337V8.69965ZM123.899 12.5777H119.041V13.3897H123.899V12.5777ZM123.899 15.7277V14.8737H119.041V15.7277H123.899ZM142.384 15.1817V16.9177H134.53V15.1817H137.638V10.3517H135.398V8.62965H137.638V4.84965L139.486 4.91965V8.62965H141.838V10.3517H139.486V15.1817H142.384ZM135.412 13.7537C135.207 13.5483 134.96 13.315 134.67 13.0537C134.381 12.783 134.092 12.5263 133.802 12.2837V17.2117H132.038V12.9137C131.59 13.3617 131.138 13.7677 130.68 14.1317L129.756 12.5497C130.578 11.8963 131.273 11.2523 131.842 10.6177C132.421 9.98299 132.906 9.34365 133.298 8.69965H130.554V7.00565H132.22L131.828 5.11565L133.578 5.03165L133.928 7.00565H135.202V8.69965C135.044 8.99832 134.866 9.29699 134.67 9.59565C134.484 9.89432 134.278 10.1977 134.054 10.5057C134.222 10.627 134.404 10.7623 134.6 10.9117C134.806 11.061 135.006 11.215 135.202 11.3737C135.408 11.523 135.604 11.6723 135.79 11.8217C135.986 11.9617 136.159 12.0877 136.308 12.1997L135.412 13.7537ZM157.174 15.2657V17.0017H146.002V5.35365H156.922V7.08965H154.724L156.026 8.05565C155.671 8.56899 155.298 9.07765 154.906 9.58165C154.514 10.0857 154.098 10.5757 153.66 11.0517C154.201 11.5837 154.714 12.1017 155.2 12.6057C155.694 13.1003 156.119 13.5437 156.474 13.9357L155.242 15.2657H157.174ZM147.864 7.08965V13.6977C148.47 13.2963 149.04 12.881 149.572 12.4517C150.113 12.013 150.626 11.5557 151.112 11.0797C150.561 10.529 150.029 10.0157 149.516 9.53965C149.002 9.06365 148.545 8.66232 148.144 8.33565L149.32 7.08965H147.864ZM152.358 9.77765C152.74 9.34832 153.104 8.91432 153.45 8.47565C153.795 8.02765 154.126 7.56565 154.444 7.08965H149.446C149.847 7.44432 150.295 7.85499 150.79 8.32165C151.294 8.77899 151.816 9.26432 152.358 9.77765ZM147.864 15.2657H155.074C154.728 14.8457 154.322 14.3883 153.856 13.8937C153.398 13.399 152.913 12.8857 152.4 12.3537C151.849 12.8857 151.284 13.3897 150.706 13.8657C150.127 14.3323 149.534 14.771 148.928 15.1817L147.864 13.8237V15.2657Z" fill="white"/>
</svg>
